<svg width="24" height="24" viewBox="0 0 24 24" fill="none" xmlns="http://www.w3.org/2000/svg">
<path d="M11.9706 7.50003C11.7741 7.49889 11.5793 7.53673 11.3974 7.61137C11.2155 7.68602 11.0501 7.79601 10.9106 7.93503L4.93905 13.935C4.79985 14.0749 4.68944 14.2409 4.6141 14.4237C4.53877 14.6064 4.5 14.8022 4.5 15C4.5 15.1978 4.53877 15.3937 4.6141 15.5764C4.68944 15.7591 4.79985 15.9252 4.93905 16.065C5.07824 16.2049 5.24349 16.3158 5.42536 16.3915C5.60722 16.4672 5.80215 16.5062 5.999 16.5062C6.19585 16.5062 6.39077 16.4672 6.57264 16.3915C6.75451 16.3158 6.91975 16.2049 7.05895 16.065L11.9706 11.1L16.8971 15.87C17.0344 16.0235 17.2018 16.1468 17.3887 16.2323C17.5756 16.3177 17.7781 16.3635 17.9835 16.3668C18.1888 16.3701 18.3926 16.3307 18.5822 16.2513C18.7717 16.1718 18.9429 16.0538 19.085 15.9049C19.2271 15.7559 19.337 15.579 19.408 15.3854C19.479 15.1917 19.5094 14.9855 19.4975 14.7795C19.4855 14.5735 19.4313 14.3722 19.3384 14.1881C19.2454 14.0041 19.1157 13.8414 18.9573 13.71L12.9857 7.92003C12.7127 7.65555 12.3497 7.50539 11.9706 7.50003Z" fill="#111111"/>
</svg>
