<svg width="24" height="24" viewBox="0 0 24 24" fill="none" xmlns="http://www.w3.org/2000/svg">
<path d="M11.9706 16.5061C11.7741 16.5073 11.5793 16.4694 11.3974 16.3948C11.2155 16.3201 11.0501 16.2102 10.9106 16.0711L4.93905 10.0711C4.79985 9.93128 4.68944 9.76524 4.6141 9.58251C4.53877 9.39978 4.5 9.20393 4.5 9.00614C4.5 8.80835 4.53877 8.6125 4.6141 8.42976C4.68944 8.24703 4.79985 8.08099 4.93905 7.94114C5.07824 7.80128 5.24349 7.69034 5.42536 7.61465C5.60722 7.53896 5.80215 7.5 5.999 7.5C6.19585 7.5 6.39077 7.53896 6.57264 7.61465C6.75451 7.69034 6.91975 7.80128 7.05895 7.94114L11.9706 12.9061L16.8971 8.13614C17.0344 7.9827 17.2018 7.85939 17.3887 7.77391C17.5756 7.68843 17.7781 7.64263 17.9835 7.63936C18.1888 7.63609 18.3926 7.67542 18.5822 7.75491C18.7717 7.8344 18.9429 7.95232 19.085 8.10131C19.2271 8.2503 19.337 8.42714 19.408 8.62078C19.479 8.81442 19.5094 9.0207 19.4975 9.2267C19.4855 9.4327 19.4313 9.63401 19.3384 9.81802C19.2454 10.002 19.1157 10.1648 18.9573 10.2961L12.9857 16.0861C12.7127 16.3506 12.3497 16.5008 11.9706 16.5061Z" fill="#111111"/>
</svg>
