<svg width="24" height="24" viewBox="0 0 24 24" fill="none" xmlns="http://www.w3.org/2000/svg">
<path d="M3.9502 1.8811H13.9502V3.8811H3.9502V13.8811H1.9502V3.8811C1.9502 2.7711 2.8402 1.8811 3.9502 1.8811ZM7.9502 5.8811H17.9502V7.8811H7.9502V17.8811H5.9502V7.8811C5.9502 6.7711 6.8402 5.8811 7.9502 5.8811ZM11.9502 9.8811H19.9502C21.0602 9.8811 21.9502 10.7711 21.9502 11.8811V19.8811C21.9502 20.9911 21.0602 21.8811 19.9502 21.8811H11.9502C10.8402 21.8811 9.9502 20.9911 9.9502 19.8811V11.8811C9.9502 10.7711 10.8402 9.8811 11.9502 9.8811ZM13.9502 11.8811V19.8811L19.9502 15.8811L13.9502 11.8811Z" fill="black"/>
</svg>
