<svg width="24" height="24" viewBox="0 0 24 24" fill="none" xmlns="http://www.w3.org/2000/svg">
<path d="M6 21C5.20435 21 4.44129 20.6839 3.87868 20.1213C3.31607 19.5587 3 18.7956 3 18C3 17.4 3.18 16.84 3.5 16.37L9 6.81V5C8.73478 5 8.48043 4.89464 8.29289 4.70711C8.10536 4.51957 8 4.26522 8 4V3C8 2.46957 8.21071 1.96086 8.58579 1.58579C8.96086 1.21071 9.46957 1 10 1H14C14.5304 1 15.0391 1.21071 15.4142 1.58579C15.7893 1.96086 16 2.46957 16 3V4C16 4.26522 15.8946 4.51957 15.7071 4.70711C15.5196 4.89464 15.2652 5 15 5V6.81L20.5 16.37C20.82 16.84 21 17.4 21 18C21 18.7956 20.6839 19.5587 20.1213 20.1213C19.5587 20.6839 18.7956 21 18 21H6ZM5 18C5 18.2652 5.10536 18.5196 5.29289 18.7071C5.48043 18.8946 5.73478 19 6 19H18C18.2652 19 18.5196 18.8946 18.7071 18.7071C18.8946 18.5196 19 18.2652 19 18C19 17.79 18.93 17.59 18.82 17.43L16.53 13.47L14 16L8.93 10.93L5.18 17.43C5.07 17.59 5 17.79 5 18ZM13 9C12.7348 9 12.4804 9.10536 12.2929 9.29289C12.1054 9.48043 12 9.73478 12 10C12 10.2652 12.1054 10.5196 12.2929 10.7071C12.4804 10.8946 12.7348 11 13 11C13.2652 11 13.5196 10.8946 13.7071 10.7071C13.8946 10.5196 14 10.2652 14 10C14 9.73478 13.8946 9.48043 13.7071 9.29289C13.5196 9.10536 13.2652 9 13 9Z" fill="#111111"/>
</svg>
