<svg width="24" height="24" viewBox="0 0 24 24" fill="none" xmlns="http://www.w3.org/2000/svg">
<path fill-rule="evenodd" clip-rule="evenodd" d="M3.50232 18.0692C2.83191 18.7396 2.83191 19.8265 3.50232 20.4969C4.17272 21.1673 5.25966 21.1673 5.93006 20.4969L11.9997 14.4273L18.0696 20.4972C18.74 21.1676 19.827 21.1676 20.4974 20.4972C21.1678 19.8268 21.1678 18.7399 20.4974 18.0695L14.4274 11.9995L20.4966 5.93043C21.167 5.26002 21.167 4.17309 20.4966 3.50268C19.8262 2.83228 18.7392 2.83228 18.0688 3.50268L11.9997 9.57179L5.93088 3.50299C5.26048 2.83258 4.17354 2.83258 3.50313 3.50299C2.83273 4.17339 2.83273 5.26033 3.50313 5.93074L9.57195 11.9995L3.50232 18.0692Z" fill="#111111"/>
</svg>
