<svg width="24" height="24" viewBox="0 0 24 24" fill="none" xmlns="http://www.w3.org/2000/svg">
<path fill-rule="evenodd" clip-rule="evenodd" d="M6.3352 16.0461C5.88827 16.4931 5.88827 17.2177 6.3352 17.6646C6.78214 18.1116 7.50677 18.1116 7.9537 17.6646L12 13.6183L16.0465 17.6648C16.4935 18.1117 17.2181 18.1117 17.665 17.6648C18.112 17.2178 18.112 16.4932 17.665 16.0463L13.6185 11.9998L17.6647 7.95364C18.1116 7.5067 18.1116 6.78208 17.6647 6.33514C17.2178 5.88821 16.4931 5.8882 16.0462 6.33514L12 10.3813L7.95403 6.33529C7.5071 5.88836 6.78247 5.88836 6.33553 6.33529C5.8886 6.78223 5.8886 7.50686 6.33553 7.95379L10.3815 11.9998L6.3352 16.0461Z" fill="#111111"/>
</svg>
