<svg width="24" height="24" viewBox="0 0 24 24" fill="none" xmlns="http://www.w3.org/2000/svg">
<path d="M1 18.884V5.11602H6.81336V6.97238H2.95054V11.0138H6.31617V12.8702H2.95054V16.9116H6.81336V18.884H1Z" fill="#111111"/>
<path d="M8.00122 18.884V5.11602H9.87527L12.8202 13.4116H12.8584V5.11602H14.809V18.884H12.9732L9.99 10.6077H9.95176V18.884H8.00122Z" fill="#111111"/>
<path d="M16.46 8.36464C16.46 7.81031 16.5556 7.32044 16.7468 6.89503C16.938 6.46961 17.193 6.1151 17.5117 5.83149C17.8177 5.56077 18.1619 5.35451 18.5444 5.21271C18.9396 5.0709 19.3348 5 19.73 5C20.1252 5 20.514 5.0709 20.8965 5.21271C21.2917 5.35451 21.6486 5.56077 21.9674 5.83149C22.2733 6.1151 22.5219 6.46961 22.7132 6.89503C22.9044 7.32044 23 7.81031 23 8.36464V9.06077H21.0495V8.36464C21.0495 7.88766 20.9156 7.5396 20.6479 7.32044C20.3929 7.0884 20.0869 6.97238 19.73 6.97238C19.373 6.97238 19.0607 7.0884 18.793 7.32044C18.538 7.5396 18.4105 7.88766 18.4105 8.36464V15.6354C18.4105 16.1123 18.538 16.4669 18.793 16.6989C19.0607 16.918 19.373 17.0276 19.73 17.0276C20.0869 17.0276 20.3929 16.918 20.6479 16.6989C20.9156 16.4669 21.0495 16.1123 21.0495 15.6354V13.0442H19.5005V11.3039H23V15.6354C23 16.2155 22.9044 16.7118 22.7132 17.1243C22.5219 17.5368 22.2733 17.8785 21.9674 18.1492C21.6486 18.4328 21.2917 18.6455 20.8965 18.7873C20.514 18.9291 20.1252 19 19.73 19C19.3348 19 18.9396 18.9291 18.5444 18.7873C18.1619 18.6455 17.8177 18.4328 17.5117 18.1492C17.193 17.8785 16.938 17.5368 16.7468 17.1243C16.5556 16.7118 16.46 16.2155 16.46 15.6354V8.36464Z" fill="#111111"/>
</svg>
