<svg width="24" height="24" viewBox="0 0 24 24" fill="none" xmlns="http://www.w3.org/2000/svg">
<path d="M2 4.27L3.28 3L20 19.72L18.73 21L15.65 17.92C14.5 18.3 13.28 18.5 12 18.5C7 18.5 2.73 15.39 1 11C1.69 9.24 2.79 7.69 4.19 6.46L2 4.27ZM12 8C12.7956 8 13.5587 8.31607 14.1213 8.87868C14.6839 9.44129 15 10.2044 15 11C15 11.35 14.94 11.69 14.83 12L11 8.17C11.31 8.06 11.65 8 12 8ZM12 3.5C17 3.5 21.27 6.61 23 11C22.18 13.08 20.79 14.88 19 16.19L17.58 14.76C18.94 13.82 20.06 12.54 20.82 11C19.17 7.64 15.76 5.5 12 5.5C10.91 5.5 9.84 5.68 8.84 6L7.3 4.47C8.74 3.85 10.33 3.5 12 3.5ZM3.18 11C4.83 14.36 8.24 16.5 12 16.5C12.69 16.5 13.37 16.43 14 16.29L11.72 14C10.29 13.85 9.15 12.71 9 11.28L5.6 7.87C4.61 8.72 3.78 9.78 3.18 11Z" fill="black"/>
</svg>
