<svg width="24" height="24" viewBox="0 0 24 24" fill="none" xmlns="http://www.w3.org/2000/svg">
<path d="M1 19V5H6.80103V6.88764H2.9464V11.1348H6.30489V13.0225H2.9464V19H1Z" fill="#111111"/>
<path d="M10.0091 6.88764V11.2528H11.1159C11.4594 11.2528 11.7329 11.2069 11.9364 11.1152C12.14 11.0103 12.299 10.8661 12.4135 10.6826C12.5152 10.4991 12.5852 10.2762 12.6234 10.014C12.6615 9.73876 12.6806 9.42416 12.6806 9.07023C12.6806 8.71629 12.6615 8.40824 12.6234 8.14607C12.5852 7.87079 12.5089 7.63483 12.3944 7.4382C12.1527 7.07116 11.6947 6.88764 11.0205 6.88764H10.0091ZM8.0627 19V5H11.1922C13.4821 5 14.627 6.36985 14.627 9.10955C14.627 9.93539 14.4998 10.6367 14.2454 11.2135C14.0037 11.7903 13.5711 12.2556 12.9478 12.6096L15.0468 19H12.9859L11.1731 13.0225H10.0091V19H8.0627Z" fill="#111111"/>
<path d="M20.1186 14.1039L19.1644 9.0309H19.1263L18.1722 14.1039H20.1186ZM15.3098 19L18.3439 5H19.9659L23 19H21.0536L20.4811 15.9916H17.8287L17.2562 19H15.3098Z" fill="#111111"/>
</svg>
