<svg width="24" height="24" viewBox="0 0 24 24" fill="none" xmlns="http://www.w3.org/2000/svg">
<path d="M19 20H6C5.46957 20 4.96086 19.7893 4.58579 19.4142C4.21071 19.0391 4 18.5304 4 18V8.94L1.23 5.64C1.09 5.47 1 5.24 1 5C1 4.73478 1.10536 4.48043 1.29289 4.29289C1.48043 4.10536 1.73478 4 2 4H19C19.5304 4 20.0391 4.21071 20.4142 4.58579C20.7893 4.96086 21 5.46957 21 6V18C21 18.5304 20.7893 19.0391 20.4142 19.4142C20.0391 19.7893 19.5304 20 19 20ZM7.5 7C7.36739 7 7.24021 7.05268 7.14645 7.14645C7.05268 7.24021 7 7.36739 7 7.5V8.5C7 8.63261 7.05268 8.75979 7.14645 8.85355C7.24021 8.94732 7.36739 9 7.5 9H17.5C17.6326 9 17.7598 8.94732 17.8536 8.85355C17.9473 8.75979 18 8.63261 18 8.5V7.5C18 7.36739 17.9473 7.24021 17.8536 7.14645C17.7598 7.05268 17.6326 7 17.5 7H7.5ZM7.5 11C7.36739 11 7.24021 11.0527 7.14645 11.1464C7.05268 11.2402 7 11.3674 7 11.5V12.5C7 12.6326 7.05268 12.7598 7.14645 12.8536C7.24021 12.9473 7.36739 13 7.5 13H17.5C17.6326 13 17.7598 12.9473 17.8536 12.8536C17.9473 12.7598 18 12.6326 18 12.5V11.5C18 11.3674 17.9473 11.2402 17.8536 11.1464C17.7598 11.0527 17.6326 11 17.5 11H7.5ZM7.5 15C7.36739 15 7.24021 15.0527 7.14645 15.1464C7.05268 15.2402 7 15.3674 7 15.5V16.5C7 16.6326 7.05268 16.7598 7.14645 16.8536C7.24021 16.9473 7.36739 17 7.5 17H12.5C12.6326 17 12.7598 16.9473 12.8536 16.8536C12.9473 16.7598 13 16.6326 13 16.5V15.5C13 15.3674 12.9473 15.2402 12.8536 15.1464C12.7598 15.0527 12.6326 15 12.5 15H7.5Z" fill="black"/>
</svg>
