<svg width="24" height="24" viewBox="0 0 24 24" fill="none" xmlns="http://www.w3.org/2000/svg">
<path d="M15.1548 19.1956L9.15479 17.0856V5.19556L15.1548 7.30556V19.1956ZM20.6548 3.19556C20.5948 3.19556 20.5448 3.19556 20.4948 3.19556L15.1548 5.29556L9.15479 3.19556L3.51479 5.09556C3.30479 5.16556 3.15479 5.34556 3.15479 5.57556V20.6956C3.15479 20.8282 3.20746 20.9553 3.30123 21.0491C3.395 21.1429 3.52218 21.1956 3.65479 21.1956C3.70479 21.1956 3.76479 21.1956 3.81479 21.1656L9.15479 19.0956L15.1548 21.1956L20.7948 19.2956C21.0048 19.1956 21.1548 19.0456 21.1548 18.8156V3.69556C21.1548 3.56295 21.1021 3.43577 21.0083 3.342C20.9146 3.24824 20.7874 3.19556 20.6548 3.19556Z" fill="#111111"/>
</svg>
