<svg width="24" height="24" viewBox="0 0 24 24" fill="none" xmlns="http://www.w3.org/2000/svg">
<path d="M1 8.36464C1 7.81031 1.09419 7.32044 1.28256 6.89503C1.47093 6.46961 1.72209 6.1151 2.03605 5.83149C2.33745 5.56077 2.67652 5.35451 3.05326 5.21271C3.44256 5.0709 3.83187 5 4.22117 5C4.61047 5 4.9935 5.0709 5.37024 5.21271C5.75955 5.35451 6.11118 5.56077 6.42513 5.83149C6.72653 6.1151 6.97141 6.46961 7.15978 6.89503C7.34815 7.32044 7.44234 7.81031 7.44234 8.36464V9.06077H5.52094V8.36464C5.52094 7.88766 5.38908 7.5396 5.12536 7.32044C4.8742 7.0884 4.5728 6.97238 4.22117 6.97238C3.86954 6.97238 3.56187 7.0884 3.29815 7.32044C3.04698 7.5396 2.9214 7.88766 2.9214 8.36464V15.6354C2.9214 16.1123 3.04698 16.4669 3.29815 16.6989C3.56187 16.918 3.86954 17.0276 4.22117 17.0276C4.5728 17.0276 4.8742 16.918 5.12536 16.6989C5.38908 16.4669 5.52094 16.1123 5.52094 15.6354V13.0442H3.99512V11.3039H7.44234V15.6354C7.44234 16.2155 7.34815 16.7118 7.15978 17.1243C6.97141 17.5368 6.72653 17.8785 6.42513 18.1492C6.11118 18.4328 5.75955 18.6455 5.37024 18.7873C4.9935 18.9291 4.61047 19 4.22117 19C3.83187 19 3.44256 18.9291 3.05326 18.7873C2.67652 18.6455 2.33745 18.4328 2.03605 18.1492C1.72209 17.8785 1.47093 17.5368 1.28256 17.1243C1.09419 16.7118 1 16.2155 1 15.6354V8.36464Z" fill="#111111"/>
<path d="M9.13357 18.884V5.11602H14.8601V6.97238H11.055V11.0138H14.3703V12.8702H11.055V16.9116H14.8601V18.884H9.13357Z" fill="#111111"/>
<path d="M18.027 6.97238V11.2652H19.1195C19.4586 11.2652 19.7286 11.2201 19.9295 11.1298C20.1305 11.0267 20.2874 10.8849 20.4005 10.7044C20.5009 10.5239 20.57 10.3048 20.6077 10.047C20.6453 9.77624 20.6642 9.46685 20.6642 9.11878C20.6642 8.77072 20.6453 8.46777 20.6077 8.20994C20.57 7.93923 20.4946 7.70718 20.3816 7.51381C20.143 7.15285 19.6909 6.97238 19.0253 6.97238H18.027ZM16.1056 18.884V5.11602H19.1949C21.4553 5.11602 22.5856 6.46317 22.5856 9.15746C22.5856 9.96961 22.46 10.6593 22.2088 11.2265C21.9702 11.7937 21.5433 12.2514 20.9279 12.5994L23 18.884H20.9656L19.176 13.0055H18.027V18.884H16.1056Z" fill="#111111"/>
</svg>
