<svg width="24" height="24" viewBox="0 0 24 24" fill="none" xmlns="http://www.w3.org/2000/svg">
<path d="M10.7796 13.2204C11.1344 13.558 11.1344 14.112 10.7796 14.4496C10.442 14.7871 9.88802 14.7871 9.55045 14.4496C7.86259 12.7617 7.86259 10.0179 9.55045 8.33L12.6146 5.26589C14.3024 3.57804 17.0463 3.57804 18.7341 5.26589C20.422 6.95375 20.422 9.69759 18.7341 11.3854L17.4444 12.6751C17.4531 11.9654 17.3405 11.2556 17.0982 10.5805L17.505 10.165C18.5264 9.15229 18.5264 7.50771 17.505 6.495C16.4923 5.47363 14.8477 5.47363 13.835 6.495L10.7796 9.55045C9.75818 10.5632 9.75818 12.2077 10.7796 13.2204ZM13.2204 9.55045C13.558 9.21288 14.112 9.21288 14.4496 9.55045C16.1374 11.2383 16.1374 13.9821 14.4496 15.67L11.3854 18.7341C9.69759 20.422 6.95375 20.422 5.26589 18.7341C3.57804 17.0463 3.57804 14.3024 5.26589 12.6146L6.55559 11.3249C6.54693 12.0346 6.65945 12.7444 6.90181 13.4282L6.495 13.835C5.47363 14.8477 5.47363 16.4923 6.495 17.505C7.50771 18.5264 9.15229 18.5264 10.165 17.505L13.2204 14.4496C14.2418 13.4368 14.2418 11.7923 13.2204 10.7796C12.8656 10.442 12.8656 9.88802 13.2204 9.55045Z" fill="black"/>
</svg>
