<svg width="24" height="24" viewBox="0 0 24 24" fill="none" xmlns="http://www.w3.org/2000/svg">
<path d="M6.33334 10H7.33334V8.66666C7.33334 6.09344 9.42675 4 12 4C14.5733 4 16.6667 6.09344 16.6667 8.66666V10H17.6667C17.8509 10 18 10.1491 18 10.3333V18.6667C18 19.402 17.402 20 16.6667 20H7.33331C6.59797 20 6 19.402 6 18.6667V10.3333C6 10.1491 6.14909 10 6.33334 10ZM11.0019 16.9632C10.9915 17.0573 11.0218 17.1517 11.0849 17.2223C11.1481 17.293 11.2386 17.3333 11.3333 17.3333H12.6667C12.7614 17.3333 12.8519 17.293 12.915 17.2223C12.9782 17.1517 13.0085 17.0573 12.998 16.9632L12.7877 15.0723C13.1292 14.8239 13.3333 14.431 13.3333 14C13.3333 13.2647 12.7353 12.6667 12 12.6667C11.2646 12.6667 10.6666 13.2646 10.6666 14C10.6666 14.431 10.8707 14.8239 11.2122 15.0723L11.0019 16.9632ZM9.33334 10H14.6667V8.66666C14.6667 7.19628 13.4704 6 12 6C10.5296 6 9.33334 7.19628 9.33334 8.66666V10Z" fill="black"/>
</svg>
