<svg width="24" height="24" viewBox="0 0 24 24" fill="none" xmlns="http://www.w3.org/2000/svg">
<path d="M22 3V15.5C22 16.4283 21.6313 17.3185 20.9749 17.9749C20.3185 18.6313 19.4283 19 18.5 19C17.5717 19 16.6815 18.6313 16.0251 17.9749C15.3687 17.3185 15 16.4283 15 15.5C15 14.5717 15.3687 13.6815 16.0251 13.0251C16.6815 12.3687 17.5717 12 18.5 12C19.04 12 19.55 12.12 20 12.34V6.47L10 8.6V17.5C10 18.4283 9.63125 19.3185 8.97487 19.9749C8.3185 20.6313 7.42826 21 6.5 21C5.57174 21 4.6815 20.6313 4.02513 19.9749C3.36875 19.3185 3 18.4283 3 17.5C3 16.5717 3.36875 15.6815 4.02513 15.0251C4.6815 14.3687 5.57174 14 6.5 14C7.04 14 7.55 14.12 8 14.34V6L22 3Z" fill="black"/>
</svg>
