<svg width="24" height="24" viewBox="0 0 24 24" fill="none" xmlns="http://www.w3.org/2000/svg">
<path d="M3 5.27L4.28 4L21 20.72L19.73 22L10 12.27V17.5C10 18.4283 9.63125 19.3185 8.97487 19.9749C8.3185 20.6313 7.42826 21 6.5 21C5.57174 21 4.6815 20.6313 4.02513 19.9749C3.36875 19.3185 3 18.4283 3 17.5C3 16.5717 3.36875 15.6815 4.02513 15.0251C4.6815 14.3687 5.57174 14 6.5 14C7.04 14 7.55 14.12 8 14.34V10.27L3 5.27ZM22 3V15.5C22 16.5 21.57 17.42 20.88 18.06L15.94 13.12C16.58 12.43 17.5 12 18.5 12C19.04 12 19.55 12.12 20 12.34V6.47L11.17 8.35L8.66 5.84L22 3Z" fill="black"/>
</svg>
