<svg width="24" height="24" viewBox="0 0 24 24" fill="none" xmlns="http://www.w3.org/2000/svg">
<path fill-rule="evenodd" clip-rule="evenodd" d="M19.3597 4.94072C19.0335 4.61604 18.6132 4.40274 18.1585 4.33129C17.7039 4.25984 17.2384 4.33391 16.8284 4.5429C16.8052 4.5098 16.5883 4.2704 16.5031 4.1845C16.0971 3.77943 15.5469 3.55194 14.9734 3.55194C14.3999 3.55194 13.8498 3.77943 13.4437 4.1845L9.59223 8.03599C9.46023 8.16803 9.38608 8.3471 9.38608 8.5338C9.38608 8.72051 9.46023 8.89957 9.59223 9.03161C9.72534 9.16158 9.904 9.23433 10.09 9.23433C10.2761 9.23433 10.4547 9.16158 10.5878 9.03161L14.4393 5.18012C14.581 5.03853 14.7731 4.95899 14.9734 4.95899C15.1737 4.95899 15.3658 5.03853 15.5075 5.18012L15.7652 5.43853L14.1985 7.00447C14.1302 7.07309 14.0918 7.16601 14.0918 7.26288C14.0918 7.35975 14.1302 7.45266 14.1985 7.52129L16.7798 10.099C16.8482 10.1673 16.9409 10.2057 17.0375 10.2057C17.1341 10.2057 17.2268 10.1673 17.2952 10.099L19.3597 8.03459C19.7696 7.62413 19.9999 7.06775 19.9999 6.48765C19.9999 5.90755 19.7696 5.35117 19.3597 4.94072ZM13.4241 8.29504C13.3556 8.22672 13.2628 8.18835 13.166 8.18835C13.0693 8.18835 12.9765 8.22672 12.908 8.29504L7.11522 14.0892C7.01337 14.1908 6.93257 14.3115 6.87744 14.4444C6.82231 14.5773 6.79393 14.7198 6.79393 14.8637C6.79393 15.0076 6.82231 15.1501 6.87744 15.283C6.93257 15.4159 7.01337 15.5366 7.11522 15.6382L8.66427 17.1873C8.7659 17.2891 8.88663 17.3699 9.01953 17.4251C9.15244 17.4802 9.29491 17.5086 9.43879 17.5086C9.58268 17.5086 9.72515 17.4802 9.85805 17.4251C9.99096 17.3699 10.1117 17.2891 10.2133 17.1873L16.0067 11.3938C16.0751 11.3253 16.1134 11.2325 16.1134 11.1358C16.1134 11.039 16.0751 10.9462 16.0067 10.8777L13.4241 8.29504ZM5.81749 15.9673C5.87439 15.9839 5.92618 16.0146 5.96805 16.0566L8.3909 18.4801C8.43285 18.522 8.46355 18.5738 8.48015 18.6307C8.49675 18.6876 8.49872 18.7478 8.48587 18.8056C8.47302 18.8635 8.44577 18.9172 8.40664 18.9617C8.36751 19.0062 8.31778 19.0402 8.26205 19.0603L4.4697 20.4291C4.40655 20.4509 4.33859 20.4546 4.27343 20.44C4.20826 20.4253 4.14847 20.3928 4.10075 20.346C4.05348 20.2988 4.02064 20.2391 4.00605 20.1739C3.99146 20.1087 3.99573 20.0407 4.01837 19.9778L5.38786 16.1854C5.40804 16.1297 5.44197 16.08 5.48649 16.0409C5.53101 16.0017 5.5847 15.9745 5.64256 15.9616C5.70042 15.9488 5.76059 15.9507 5.81749 15.9673Z" fill="black"/>
</svg>
