<svg width="24" height="24" viewBox="0 0 24 24" fill="none" xmlns="http://www.w3.org/2000/svg">
<path d="M16.4 17.8667V20H1V17.8667C1 17.8667 1 13.6 8.7 13.6C16.4 13.6 16.4 17.8667 16.4 17.8667ZM12.55 7.73338C12.55 6.995 12.3242 6.2732 11.9012 5.65925C11.4781 5.04531 10.8768 4.5668 10.1733 4.28424C9.46984 4.00167 8.69573 3.92774 7.9489 4.07179C7.20208 4.21584 6.51607 4.57141 5.97764 5.09352C5.43921 5.61563 5.07253 6.28085 4.92398 7.00504C4.77542 7.72923 4.85167 8.47988 5.14306 9.16206C5.43446 9.84423 5.92793 10.4273 6.56105 10.8375C7.19418 11.2477 7.93854 11.4667 8.7 11.4667C9.72108 11.4667 10.7003 11.0734 11.4224 10.3732C12.1444 9.6731 12.55 8.72351 12.55 7.73338ZM16.334 13.6C17.0102 14.1075 17.5635 14.7525 17.955 15.4896C18.3465 16.2268 18.5667 17.0381 18.6 17.8667V20H23V17.8667C23 17.8667 23 13.9947 16.334 13.6ZM15.3 4.00006C14.5429 3.99597 13.8024 4.21547 13.177 4.62939C13.8452 5.5347 14.2045 6.62009 14.2045 7.73338C14.2045 8.84667 13.8452 9.93205 13.177 10.8374C13.8024 11.2513 14.5429 11.4708 15.3 11.4667C16.3211 11.4667 17.3003 11.0734 18.0224 10.3732C18.7444 9.6731 19.15 8.72351 19.15 7.73338C19.15 6.74324 18.7444 5.79365 18.0224 5.09352C17.3003 4.39339 16.3211 4.00006 15.3 4.00006Z" fill="black"/>
</svg>
