<svg width="24" height="24" viewBox="0 0 24 24" fill="none" xmlns="http://www.w3.org/2000/svg">
<path d="M11.9999 11C12.2651 11 12.5194 11.1053 12.707 11.2929C12.8945 11.4804 12.9999 11.7348 12.9999 12C12.9999 12.2652 12.8945 12.5196 12.707 12.7071C12.5194 12.8946 12.2651 13 11.9999 13C11.7346 13 11.4803 12.8946 11.2928 12.7071C11.1052 12.5196 10.9999 12.2652 10.9999 12C10.9999 11.7348 11.1052 11.4804 11.2928 11.2929C11.4803 11.1053 11.7346 11 11.9999 11ZM4.21986 4.21998C5.64986 2.78998 8.74986 3.42998 11.9999 5.55998C15.2499 3.42998 18.3499 2.78998 19.7799 4.21998C21.2099 5.64998 20.5699 8.74998 18.4399 12C20.5699 15.25 21.2099 18.35 19.7799 19.78C18.3499 21.21 15.2499 20.57 11.9999 18.44C8.74986 20.57 5.64986 21.21 4.21986 19.78C2.78986 18.35 3.42986 15.25 5.55986 12C3.42986 8.74998 2.78986 5.64998 4.21986 4.21998ZM15.5399 8.45998C16.1499 9.07998 16.7099 9.70998 17.2299 10.34C18.6099 8.20998 19.1099 6.37998 18.3599 5.63998C17.6199 4.88998 15.7899 5.38998 13.6599 6.76998C14.2899 7.28998 14.9199 7.84998 15.5399 8.45998ZM8.45986 15.54C7.84986 14.92 7.28986 14.29 6.76986 13.66C5.38986 15.79 4.88986 17.62 5.63986 18.36C6.37986 19.11 8.20986 18.61 10.3399 17.23C9.70986 16.71 9.07986 16.15 8.45986 15.54ZM5.63986 5.63998C4.88986 6.37998 5.38986 8.20998 6.76986 10.34C7.28986 9.70998 7.84986 9.07998 8.45986 8.45998C9.07986 7.84998 9.70986 7.28998 10.3399 6.76998C8.20986 5.38998 6.37986 4.88998 5.63986 5.63998ZM9.87986 14.12C10.5799 14.82 11.2999 15.46 11.9999 16.03C12.6999 15.46 13.4199 14.82 14.1199 14.12C14.8199 13.42 15.4599 12.7 16.0299 12C15.4599 11.3 14.8199 10.58 14.1199 9.87998C13.4199 9.17998 12.6999 8.53998 11.9999 7.96998C11.2999 8.53998 10.5799 9.17998 9.87986 9.87998C9.17986 10.58 8.53986 11.3 7.96986 12C8.53986 12.7 9.17986 13.42 9.87986 14.12ZM18.3599 18.36C19.1099 17.62 18.6099 15.79 17.2299 13.66C16.7099 14.29 16.1499 14.92 15.5399 15.54C14.9199 16.15 14.2899 16.71 13.6599 17.23C15.7899 18.61 17.6199 19.11 18.3599 18.36Z" fill="#111111"/>
</svg>
