<svg width="24" height="24" viewBox="0 0 24 24" fill="none" xmlns="http://www.w3.org/2000/svg">
<path d="M11.8574 1.70483C12.3879 1.70483 12.8966 1.91555 13.2716 2.29062C13.6467 2.66569 13.8574 3.1744 13.8574 3.70483C13.8574 4.44483 13.4574 5.09483 12.8574 5.43483V6.70483H13.8574C15.7139 6.70483 17.4944 7.44233 18.8072 8.75509C20.1199 10.0678 20.8574 11.8483 20.8574 13.7048H21.8574C22.1226 13.7048 22.377 13.8102 22.5645 13.9977C22.7521 14.1853 22.8574 14.4396 22.8574 14.7048V17.7048C22.8574 17.9701 22.7521 18.2244 22.5645 18.4119C22.377 18.5995 22.1226 18.7048 21.8574 18.7048H20.8574V19.7048C20.8574 20.2353 20.6467 20.744 20.2716 21.119C19.8966 21.4941 19.3879 21.7048 18.8574 21.7048H4.85742C4.32699 21.7048 3.81828 21.4941 3.44321 21.119C3.06814 20.744 2.85742 20.2353 2.85742 19.7048V18.7048H1.85742C1.59221 18.7048 1.33785 18.5995 1.15032 18.4119C0.962779 18.2244 0.857422 17.9701 0.857422 17.7048V14.7048C0.857422 14.4396 0.962779 14.1853 1.15032 13.9977C1.33785 13.8102 1.59221 13.7048 1.85742 13.7048H2.85742C2.85742 11.8483 3.59492 10.0678 4.90767 8.75509C6.22043 7.44233 8.00091 6.70483 9.85742 6.70483H10.8574V5.43483C10.2574 5.09483 9.85742 4.44483 9.85742 3.70483C9.85742 3.1744 10.0681 2.66569 10.4432 2.29062C10.8183 1.91555 11.327 1.70483 11.8574 1.70483ZM7.35742 12.7048C6.69438 12.7048 6.0585 12.9682 5.58965 13.4371C5.12081 13.9059 4.85742 14.5418 4.85742 15.2048C4.85742 15.8679 5.12081 16.5038 5.58965 16.9726C6.0585 17.4414 6.69438 17.7048 7.35742 17.7048C8.02046 17.7048 8.65635 17.4414 9.12519 16.9726C9.59403 16.5038 9.85742 15.8679 9.85742 15.2048C9.85742 14.5418 9.59403 13.9059 9.12519 13.4371C8.65635 12.9682 8.02046 12.7048 7.35742 12.7048ZM16.3574 12.7048C15.6944 12.7048 15.0585 12.9682 14.5897 13.4371C14.1208 13.9059 13.8574 14.5418 13.8574 15.2048C13.8574 15.8679 14.1208 16.5038 14.5897 16.9726C15.0585 17.4414 15.6944 17.7048 16.3574 17.7048C17.0205 17.7048 17.6563 17.4414 18.1252 16.9726C18.594 16.5038 18.8574 15.8679 18.8574 15.2048C18.8574 14.5418 18.594 13.9059 18.1252 13.4371C17.6563 12.9682 17.0205 12.7048 16.3574 12.7048Z" fill="#111111"/>
</svg>
