<svg width="24" height="24" viewBox="0 0 24 24" fill="none" xmlns="http://www.w3.org/2000/svg">
<path d="M20.7555 2.85949C20.5974 2.7834 20.4085 2.81343 20.2819 2.93499C19.3164 3.86156 17.6528 5.23138 15.2102 6.49528C15.1034 6.55059 15.0253 6.64895 14.9958 6.76556C14.7965 7.55262 14.4054 8.41166 13.8335 9.31883L13.6007 9.68802L14.0347 7.79782C14.0701 7.6437 14.016 7.48276 13.8948 7.38123C13.7736 7.27971 13.6056 7.25478 13.4601 7.31677L13.4099 7.33794C8.48159 9.41249 7.02514 12.6259 6.59559 14.3565C6.44652 14.9572 6.37216 15.552 6.37468 16.1247C6.37567 16.3456 6.38814 16.5562 6.41179 16.7532L3.12713 20.1029C2.96826 20.2648 2.96653 20.5237 3.12327 20.6878C3.20574 20.7741 3.31642 20.8178 3.42749 20.8178C3.52743 20.8178 3.62762 20.7824 3.70772 20.7108L12.7334 12.6042C12.7777 12.6071 7.5942 18.0369 7.64115 18.0369C8.34469 18.0369 9.31653 17.7126 10.4515 17.0993C11.9821 16.2722 13.6926 15.0031 15.398 13.429C15.5382 13.2998 15.5737 13.0923 15.4848 12.9237C15.3958 12.7551 15.2046 12.6674 15.0187 12.7102L13.9618 12.9528L14.3311 12.72C15.3619 12.0701 16.3256 11.6558 17.1953 11.4882C17.2893 11.4701 17.3745 11.4203 17.4365 11.3473C19.4822 8.93535 20.3482 6.55218 20.7145 4.97768C20.8476 4.40539 20.9411 3.83311 20.9919 3.27671C21.0078 3.10197 20.9137 2.93558 20.7555 2.85949Z" fill="#111111"/>
</svg>
