<svg width="24" height="24" viewBox="0 0 24 24" fill="none" xmlns="http://www.w3.org/2000/svg">
<path d="M12.6 3.10264C15.27 4.34264 18 5.63264 20.66 6.87264C20.81 6.94264 21 6.99264 21 7.19264C21 7.39264 20.81 7.43264 20.66 7.50264C18 8.74264 15.3 10.0126 12.62 11.2426C12.21 11.4526 11.79 11.4526 11.38 11.2426C8.69 10.0026 6 8.74264 3.32 7.49264C3.18 7.43264 3 7.38264 3 7.18264C3 7.00264 3.18 6.95264 3.31 6.89264C6 5.63264 8.74 4.34264 11.44 3.09264C11.73 2.96264 12.3 2.97264 12.6 3.10264ZM12 21.3926C11.8 21.3926 11.66 21.3126 11.38 21.2126C8.69 19.9726 6 18.7126 3.33 17.4626C3.19 17.3926 3 17.3526 3 17.1426C3 16.9426 3.19 16.9026 3.34 16.8326C3.78 16.6226 4.23 16.4126 4.67 16.2026C5.12 16.0026 5.56 16.0026 6 16.2126C7.79 17.0426 9.57 17.8726 11.35 18.7026C11.79 18.9126 12.23 18.9026 12.67 18.7026C14.45 17.8626 16.23 17.0326 18 16.2026C18.44 16.0026 18.87 15.9926 19.29 16.1926C19.77 16.4026 20.24 16.6326 20.71 16.8526C20.78 16.8826 20.85 16.9226 20.91 16.9726C21.04 17.0726 21.04 17.2426 20.91 17.3226C20.83 17.3826 20.74 17.4326 20.65 17.4726C18 18.7426 15.33 19.9626 12.66 21.1926C12.46 21.2926 12.19 21.3926 12 21.3926ZM12 16.4126C11.9 16.4126 11.55 16.3126 11.36 16.2426C8.68 14.9826 6 13.7426 3.34 12.4826C3.2 12.4226 3 12.3726 3 12.1726C3 11.9626 3.2 11.9226 3.35 11.8526C3.8 11.6326 4.25 11.4226 4.7 11.2126C5.13 11.0226 5.56 11.0226 6 11.2426C7.78 12.0626 9.58 12.9026 11.38 13.7426C11.79 13.9326 12.21 13.9326 12.63 13.7426C14.43 12.8926 16.23 12.0526 18.04 11.2126C18.45 11.0226 18.87 11.0226 19.29 11.2126C19.76 11.4326 20.24 11.6526 20.71 11.8726C20.77 11.9026 20.84 11.9326 20.9 11.9826C21.04 12.0926 21.04 12.2426 20.89 12.3626C20.84 12.4026 20.77 12.4326 20.71 12.4626C18 13.7426 15.31 14.9926 12.61 16.2426C12.42 16.3326 12.08 16.4126 12 16.4126Z" fill="#111111"/>
</svg>
