<svg width="24" height="24" viewBox="0 0 24 24" fill="none" xmlns="http://www.w3.org/2000/svg">
<path d="M7.6761 9.08011H5.7305V8.63536C5.7305 8.18416 5.62241 7.79742 5.40623 7.47514C5.20277 7.13996 4.85307 6.97238 4.35713 6.97238C4.09008 6.97238 3.8739 7.02394 3.70859 7.12707C3.54328 7.2302 3.40976 7.35912 3.30802 7.51381C3.20629 7.6814 3.13635 7.87477 3.0982 8.09392C3.06006 8.30018 3.04098 8.51934 3.04098 8.75138C3.04098 9.0221 3.04734 9.2477 3.06006 9.42818C3.08549 9.60866 3.13635 9.7698 3.21265 9.9116C3.28895 10.0534 3.39704 10.1759 3.53692 10.279C3.68952 10.3821 3.89298 10.4853 4.14731 10.5884L5.63512 11.1878C6.06748 11.3554 6.41718 11.5552 6.68423 11.7873C6.95127 12.0064 7.16109 12.2643 7.31369 12.5608C7.45357 12.8702 7.54894 13.2247 7.59981 13.6243C7.65067 14.0111 7.6761 14.4558 7.6761 14.9586C7.6761 15.5387 7.61888 16.0801 7.50443 16.5829C7.38999 17.0727 7.2056 17.4917 6.95127 17.8398C6.68423 18.2007 6.33453 18.4843 5.90217 18.6906C5.46981 18.8969 4.94208 19 4.31898 19C3.84847 19 3.40976 18.9162 3.00283 18.7486C2.59591 18.581 2.24621 18.349 1.95373 18.0525C1.66125 17.756 1.426 17.4144 1.24797 17.0276C1.08266 16.628 1 16.1961 1 15.732V14.9972H2.94561V15.616C2.94561 15.977 3.04734 16.3057 3.2508 16.6022C3.46698 16.8858 3.82304 17.0276 4.31898 17.0276C4.6496 17.0276 4.90393 16.9825 5.08196 16.8923C5.27271 16.7891 5.41895 16.6473 5.52068 16.4669C5.62241 16.2864 5.67963 16.0737 5.69235 15.8287C5.71778 15.5709 5.7305 15.2873 5.7305 14.9779C5.7305 14.6169 5.71778 14.3204 5.69235 14.0884C5.66691 13.8564 5.61605 13.6694 5.53975 13.5276C5.45074 13.3858 5.32993 13.2698 5.17733 13.1796C5.03745 13.0893 4.84671 12.9926 4.6051 12.8895L3.21265 12.3094C2.37337 11.9613 1.80749 11.5037 1.51501 10.9365C1.23525 10.3564 1.09537 9.63444 1.09537 8.77072C1.09537 8.25506 1.16531 7.76519 1.30519 7.30111C1.44507 6.83702 1.65489 6.43739 1.93465 6.10221C2.2017 5.76704 2.53868 5.50276 2.94561 5.30939C3.36525 5.10313 3.86119 5 4.43343 5C4.91665 5 5.35536 5.09024 5.74957 5.27072C6.1565 5.4512 6.5062 5.68969 6.79867 5.98619C7.38363 6.60497 7.6761 7.314 7.6761 8.11326V9.08011Z" fill="#111111"/>
<path d="M9.13054 18.884V5.11602H12.049C12.583 5.11602 13.0535 5.18693 13.4605 5.32873C13.8674 5.47053 14.2362 5.72192 14.5668 6.08287C14.8974 6.44383 15.1263 6.86925 15.2535 7.35912C15.3806 7.8361 15.4442 8.48711 15.4442 9.31215C15.4442 9.93094 15.4061 10.453 15.3298 10.8785C15.2662 11.3039 15.12 11.7035 14.8911 12.0773C14.624 12.5285 14.268 12.8831 13.8229 13.1409C13.3778 13.3858 12.7929 13.5083 12.068 13.5083H11.0761V18.884H9.13054ZM11.0761 6.97238V11.6519H12.0108C12.405 11.6519 12.7102 11.5939 12.9264 11.4779C13.1426 11.3619 13.3015 11.2007 13.4032 10.9945C13.505 10.8011 13.5622 10.5626 13.5749 10.279C13.6004 9.9954 13.6131 9.67956 13.6131 9.33149C13.6131 9.00921 13.6067 8.70626 13.594 8.42265C13.5813 8.12615 13.5241 7.86832 13.4223 7.64917C13.3206 7.43002 13.168 7.26243 12.9645 7.14641C12.7611 7.03039 12.4686 6.97238 12.0871 6.97238H11.0761Z" fill="#111111"/>
<path d="M20.1197 14.0691L19.166 9.08011H19.1279L18.1741 14.0691H20.1197ZM15.3129 18.884L18.3458 5.11602H19.9671L23 18.884H21.0544L20.4822 15.9254H17.8308L17.2585 18.884H15.3129Z" fill="#111111"/>
</svg>
