<svg width="24" height="24" viewBox="0 0 24 24" fill="none" xmlns="http://www.w3.org/2000/svg">
<path d="M11.6368 3.36129L11.637 3.36177C11.6369 3.36161 11.6368 3.36145 11.6368 3.36129L12 3.19375L11.6368 3.36129ZM12 4.14876L13.8869 8.23953C14.0908 8.68166 14.5098 8.98608 14.9933 9.04341L19.467 9.57383L16.1595 12.6325C15.802 12.9631 15.642 13.4556 15.7369 13.9332L16.6148 18.3518L12.6838 16.1514C12.259 15.9135 11.741 15.9135 11.3162 16.1514L7.38516 18.3518L8.26313 13.9332C8.35802 13.4556 8.19797 12.9631 7.8405 12.6325L7.22945 13.2933L7.8405 12.6325L4.53303 9.57383L9.00667 9.04341C9.49018 8.98608 9.90917 8.68166 10.1131 8.23953L12 4.14876Z" stroke="black" stroke-width="1.8"/>
</svg>
