<svg width="24" height="24" viewBox="0 0 24 24" fill="none" xmlns="http://www.w3.org/2000/svg">
<path d="M11.546 2.98433C11.7247 2.5969 12.2753 2.5969 12.454 2.98433L14.7041 7.86257C14.777 8.02048 14.9266 8.1292 15.0993 8.14967L20.4341 8.7822C20.8578 8.83243 21.028 9.35613 20.7147 9.64581L16.7706 13.2933C16.6429 13.4113 16.5857 13.5872 16.6196 13.7578L17.6666 19.027C17.7497 19.4454 17.3043 19.7691 16.932 19.5607L12.2442 16.9367C12.0925 16.8518 11.9075 16.8518 11.7558 16.9367L7.06804 19.5607C6.69573 19.7691 6.25025 19.4454 6.33341 19.027L7.38038 13.7578C7.41427 13.5872 7.35711 13.4113 7.22945 13.2933L3.28529 9.64581C2.97204 9.35613 3.1422 8.83243 3.56589 8.7822L8.9007 8.14967C9.07338 8.1292 9.22302 8.02048 9.29586 7.86257L11.546 2.98433Z" fill="#FFD912"/>
</svg>
