<svg width="24" height="24" viewBox="0 0 24 24" fill="none" xmlns="http://www.w3.org/2000/svg">
<path d="M20.8425 6.49256C20.7994 6.24418 20.6781 6.01606 20.4962 5.84156C20.3143 5.66706 20.0813 5.55532 19.8313 5.52267C14.6326 4.82578 9.3641 4.82578 4.16536 5.52267C3.91547 5.55516 3.68252 5.66675 3.50059 5.84112C3.31867 6.01549 3.1973 6.24349 3.15425 6.49178C2.49936 10.1345 2.49936 13.8648 3.15425 17.5074C3.19727 17.7558 3.3186 17.9839 3.50052 18.1584C3.68244 18.3329 3.9154 18.4447 4.16536 18.4773C6.76236 18.8255 9.37968 19.0001 11.9999 19C14.6196 19 17.2364 18.8254 19.8329 18.4773C20.0829 18.4448 20.3159 18.3331 20.4979 18.1586C20.6798 17.984 20.8011 17.7559 20.844 17.5074C21.498 13.8649 21.4975 10.1349 20.8425 6.49256ZM8.8888 14.3489V9.65189C8.89557 9.51533 8.93684 9.38271 9.00877 9.26643C9.08069 9.15015 9.18092 9.054 9.30009 8.98696C9.41925 8.91992 9.55346 8.88418 9.69019 8.88308C9.82691 8.88198 9.96168 8.91556 10.0819 8.98067L14.6863 11.3288C14.8129 11.3894 14.9197 11.4846 14.9945 11.6034C15.0693 11.7222 15.109 11.8597 15.109 12C15.109 12.1403 15.0693 12.2778 14.9945 12.3966C14.9197 12.5154 14.8129 12.6106 14.6863 12.6712L10.0819 15.0193C9.96174 15.0844 9.82703 15.118 9.69037 15.1169C9.55371 15.1159 9.41954 15.0802 9.3004 15.0133C9.18125 14.9463 9.08101 14.8503 9.00904 14.7341C8.93706 14.6179 8.89569 14.4854 8.8888 14.3489Z" fill="black"/>
</svg>
