<svg width="24" height="24" viewBox="0 0 24 24" fill="none" xmlns="http://www.w3.org/2000/svg">
<path d="M20.8002 7.74C20.9302 7.32 20.8002 7 20.1802 7H18.1602C17.6402 7 17.4102 7.27 17.2802 7.57C17.2802 7.57 16.2502 10.08 14.7902 11.72C14.3102 12.19 14.1002 12.34 13.8402 12.34C13.7102 12.34 13.5002 12.19 13.5002 11.76V7.74C13.5002 7.23 13.3802 7 12.9502 7H9.7602C9.4402 7 9.2502 7.24 9.2502 7.47C9.2502 7.95 10.0002 8.07 10.0502 9.44V12.42C10.0502 13.08 9.9302 13.2 9.6802 13.2C9.0002 13.2 7.3202 10.67 6.3302 7.79C6.1302 7.23 5.9402 7 5.4202 7H3.3902C2.8202 7 2.7002 7.27 2.7002 7.57C2.7002 8.11 3.3902 10.77 5.9002 14.29C7.5702 16.7 9.9302 18 12.0802 18C13.3702 18 13.5302 17.71 13.5302 17.21V15.39C13.5302 14.82 13.6502 14.7 14.0602 14.7C14.3602 14.7 14.8702 14.85 16.0702 16C17.4502 17.38 17.6702 18 18.4502 18H20.4702C21.0502 18 21.3402 17.71 21.1802 17.14C21.0002 16.57 20.3402 15.74 19.4702 14.76C19.0002 14.21 18.2902 13.61 18.0702 13.3C17.7702 12.92 17.8602 12.75 18.0702 12.4C18.0702 12.4 20.5402 8.93 20.8002 7.74Z" fill="#627DA1"/>
</svg>
