<svg width="24" height="24" viewBox="0 0 24 24" fill="none" xmlns="http://www.w3.org/2000/svg">
<path d="M12 4.88889L10.1422 6.74667L12 8.60444V4.88889ZM5.12889 4L4 5.12889L8.20444 9.33333H4V14.6667H7.55556L12 19.1111V13.1289L15.7778 16.9156C15.1822 17.3689 14.5156 17.7422 13.7778 17.9556V19.7956C15.0044 19.5111 16.1156 18.9511 17.0489 18.1867L18.8711 20L20 18.8711L12 10.8711L5.12889 4ZM18.2222 12C18.2222 12.8356 18.0444 13.6178 17.7422 14.3467L19.0844 15.6889C19.6622 14.5867 20 13.3333 20 12C20 8.19556 17.3333 5.01333 13.7778 4.20444V6.03556C16.3467 6.8 18.2222 9.18222 18.2222 12ZM16 12C16 10.4267 15.1111 9.07556 13.7778 8.41778V10.3822L15.9556 12.56C16 12.3822 16 12.1867 16 12Z" fill="black"/>
</svg>
